<mxfile host="app.diagrams.net" agent="Mozilla/5.0 (Windows NT 10.0; Win64; x64) AppleWebKit/537.36 (KHTML, like Gecko) Chrome/132.0.0.0 Safari/537.36" version="26.0.9">
  <diagram name="Pagina-1" id="cwd6Nqn04Vac3Q2ktLRN">
    <mxGraphModel dx="2062" dy="614" grid="1" gridSize="10" guides="1" tooltips="1" connect="1" arrows="1" fold="1" page="1" pageScale="1" pageWidth="827" pageHeight="1169" math="0" shadow="0">
      <root>
        <mxCell id="0" />
        <mxCell id="1" parent="0" />
        <mxCell id="Mt7ypALe2cK8DgjnzIch-3" value="" style="edgeStyle=orthogonalEdgeStyle;rounded=0;orthogonalLoop=1;jettySize=auto;html=1;" edge="1" parent="1" source="Mt7ypALe2cK8DgjnzIch-1" target="Mt7ypALe2cK8DgjnzIch-2">
          <mxGeometry relative="1" as="geometry" />
        </mxCell>
        <mxCell id="Mt7ypALe2cK8DgjnzIch-1" value="START" style="ellipse;whiteSpace=wrap;html=1;" vertex="1" parent="1">
          <mxGeometry x="354" y="20" width="120" height="80" as="geometry" />
        </mxCell>
        <mxCell id="Mt7ypALe2cK8DgjnzIch-65" value="" style="edgeStyle=orthogonalEdgeStyle;rounded=0;orthogonalLoop=1;jettySize=auto;html=1;" edge="1" parent="1" source="Mt7ypALe2cK8DgjnzIch-2" target="Mt7ypALe2cK8DgjnzIch-64">
          <mxGeometry relative="1" as="geometry" />
        </mxCell>
        <mxCell id="Mt7ypALe2cK8DgjnzIch-2" value="READ N" style="shape=parallelogram;perimeter=parallelogramPerimeter;whiteSpace=wrap;html=1;fixedSize=1;" vertex="1" parent="1">
          <mxGeometry x="354" y="160" width="120" height="60" as="geometry" />
        </mxCell>
        <mxCell id="Mt7ypALe2cK8DgjnzIch-7" value="" style="edgeStyle=orthogonalEdgeStyle;rounded=0;orthogonalLoop=1;jettySize=auto;html=1;" edge="1" parent="1" source="Mt7ypALe2cK8DgjnzIch-4" target="Mt7ypALe2cK8DgjnzIch-6">
          <mxGeometry relative="1" as="geometry" />
        </mxCell>
        <mxCell id="Mt7ypALe2cK8DgjnzIch-4" value="I = 1&lt;br&gt;MEDIA = 0&lt;div&gt;SUM_PARI = 0&lt;/div&gt;&lt;div&gt;SUM_DISP = 0&lt;/div&gt;" style="whiteSpace=wrap;html=1;" vertex="1" parent="1">
          <mxGeometry x="354" y="430" width="120" height="60" as="geometry" />
        </mxCell>
        <mxCell id="Mt7ypALe2cK8DgjnzIch-9" value="" style="edgeStyle=orthogonalEdgeStyle;rounded=0;orthogonalLoop=1;jettySize=auto;html=1;" edge="1" parent="1" source="Mt7ypALe2cK8DgjnzIch-6" target="Mt7ypALe2cK8DgjnzIch-8">
          <mxGeometry relative="1" as="geometry" />
        </mxCell>
        <mxCell id="Mt7ypALe2cK8DgjnzIch-10" value="TRUE" style="edgeLabel;html=1;align=center;verticalAlign=middle;resizable=0;points=[];" vertex="1" connectable="0" parent="Mt7ypALe2cK8DgjnzIch-9">
          <mxGeometry x="-0.3956" y="1" relative="1" as="geometry">
            <mxPoint as="offset" />
          </mxGeometry>
        </mxCell>
        <mxCell id="Mt7ypALe2cK8DgjnzIch-44" value="" style="edgeStyle=orthogonalEdgeStyle;rounded=0;orthogonalLoop=1;jettySize=auto;html=1;exitX=0;exitY=0.5;exitDx=0;exitDy=0;" edge="1" parent="1" source="Mt7ypALe2cK8DgjnzIch-6" target="Mt7ypALe2cK8DgjnzIch-43">
          <mxGeometry relative="1" as="geometry">
            <mxPoint x="312.5" y="600" as="sourcePoint" />
          </mxGeometry>
        </mxCell>
        <mxCell id="Mt7ypALe2cK8DgjnzIch-45" value="FALSE" style="edgeLabel;html=1;align=center;verticalAlign=middle;resizable=0;points=[];" vertex="1" connectable="0" parent="Mt7ypALe2cK8DgjnzIch-44">
          <mxGeometry x="-0.11" y="3" relative="1" as="geometry">
            <mxPoint as="offset" />
          </mxGeometry>
        </mxCell>
        <mxCell id="Mt7ypALe2cK8DgjnzIch-6" value="I &amp;lt;= N" style="rhombus;whiteSpace=wrap;html=1;" vertex="1" parent="1">
          <mxGeometry x="374" y="560" width="80" height="80" as="geometry" />
        </mxCell>
        <mxCell id="Mt7ypALe2cK8DgjnzIch-20" value="" style="edgeStyle=orthogonalEdgeStyle;rounded=0;orthogonalLoop=1;jettySize=auto;html=1;" edge="1" parent="1" source="Mt7ypALe2cK8DgjnzIch-8" target="Mt7ypALe2cK8DgjnzIch-19">
          <mxGeometry relative="1" as="geometry" />
        </mxCell>
        <mxCell id="Mt7ypALe2cK8DgjnzIch-8" value="READ NUM" style="shape=parallelogram;perimeter=parallelogramPerimeter;whiteSpace=wrap;html=1;fixedSize=1;" vertex="1" parent="1">
          <mxGeometry x="354" y="730" width="120" height="60" as="geometry" />
        </mxCell>
        <mxCell id="Mt7ypALe2cK8DgjnzIch-18" value="" style="edgeStyle=orthogonalEdgeStyle;rounded=0;orthogonalLoop=1;jettySize=auto;html=1;" edge="1" parent="1" source="Mt7ypALe2cK8DgjnzIch-11" target="Mt7ypALe2cK8DgjnzIch-17">
          <mxGeometry relative="1" as="geometry" />
        </mxCell>
        <mxCell id="Mt7ypALe2cK8DgjnzIch-22" value="TRUE" style="edgeLabel;html=1;align=center;verticalAlign=middle;resizable=0;points=[];" vertex="1" connectable="0" parent="Mt7ypALe2cK8DgjnzIch-18">
          <mxGeometry x="-0.28" y="-1" relative="1" as="geometry">
            <mxPoint as="offset" />
          </mxGeometry>
        </mxCell>
        <mxCell id="Mt7ypALe2cK8DgjnzIch-70" style="edgeStyle=orthogonalEdgeStyle;rounded=0;orthogonalLoop=1;jettySize=auto;html=1;exitX=0;exitY=0.5;exitDx=0;exitDy=0;entryX=0.5;entryY=0;entryDx=0;entryDy=0;" edge="1" parent="1" source="Mt7ypALe2cK8DgjnzIch-11" target="Mt7ypALe2cK8DgjnzIch-28">
          <mxGeometry relative="1" as="geometry" />
        </mxCell>
        <mxCell id="Mt7ypALe2cK8DgjnzIch-11" value="N % 2 == 0&lt;div&gt;AND&lt;/div&gt;&lt;div&gt;N &amp;gt; MEDIA&lt;/div&gt;" style="rhombus;whiteSpace=wrap;html=1;" vertex="1" parent="1">
          <mxGeometry x="360" y="1030" width="110" height="80" as="geometry" />
        </mxCell>
        <mxCell id="Mt7ypALe2cK8DgjnzIch-16" value="" style="edgeStyle=orthogonalEdgeStyle;rounded=0;orthogonalLoop=1;jettySize=auto;html=1;" edge="1" parent="1" source="Mt7ypALe2cK8DgjnzIch-14" target="Mt7ypALe2cK8DgjnzIch-11">
          <mxGeometry relative="1" as="geometry" />
        </mxCell>
        <mxCell id="Mt7ypALe2cK8DgjnzIch-14" value="MEDIA = MEDIA / I" style="whiteSpace=wrap;html=1;" vertex="1" parent="1">
          <mxGeometry x="354" y="920" width="120" height="60" as="geometry" />
        </mxCell>
        <mxCell id="Mt7ypALe2cK8DgjnzIch-24" value="" style="edgeStyle=orthogonalEdgeStyle;rounded=0;orthogonalLoop=1;jettySize=auto;html=1;" edge="1" parent="1" source="Mt7ypALe2cK8DgjnzIch-17" target="Mt7ypALe2cK8DgjnzIch-23">
          <mxGeometry relative="1" as="geometry" />
        </mxCell>
        <mxCell id="Mt7ypALe2cK8DgjnzIch-17" value="SUM_PARI += NUM" style="whiteSpace=wrap;html=1;" vertex="1" parent="1">
          <mxGeometry x="355" y="1160" width="120" height="60" as="geometry" />
        </mxCell>
        <mxCell id="Mt7ypALe2cK8DgjnzIch-21" value="" style="edgeStyle=orthogonalEdgeStyle;rounded=0;orthogonalLoop=1;jettySize=auto;html=1;" edge="1" parent="1" source="Mt7ypALe2cK8DgjnzIch-19" target="Mt7ypALe2cK8DgjnzIch-14">
          <mxGeometry relative="1" as="geometry" />
        </mxCell>
        <mxCell id="Mt7ypALe2cK8DgjnzIch-19" value="MEDIA += NUM" style="whiteSpace=wrap;html=1;" vertex="1" parent="1">
          <mxGeometry x="354" y="830" width="120" height="60" as="geometry" />
        </mxCell>
        <mxCell id="Mt7ypALe2cK8DgjnzIch-41" style="edgeStyle=orthogonalEdgeStyle;rounded=0;orthogonalLoop=1;jettySize=auto;html=1;exitX=0.5;exitY=1;exitDx=0;exitDy=0;entryX=1;entryY=0.5;entryDx=0;entryDy=0;" edge="1" parent="1" source="Mt7ypALe2cK8DgjnzIch-23" target="Mt7ypALe2cK8DgjnzIch-38">
          <mxGeometry relative="1" as="geometry" />
        </mxCell>
        <mxCell id="Mt7ypALe2cK8DgjnzIch-23" value="I += 1" style="whiteSpace=wrap;html=1;" vertex="1" parent="1">
          <mxGeometry x="355" y="1260" width="120" height="60" as="geometry" />
        </mxCell>
        <mxCell id="Mt7ypALe2cK8DgjnzIch-31" value="" style="edgeStyle=orthogonalEdgeStyle;rounded=0;orthogonalLoop=1;jettySize=auto;html=1;" edge="1" parent="1" source="Mt7ypALe2cK8DgjnzIch-28" target="Mt7ypALe2cK8DgjnzIch-30">
          <mxGeometry relative="1" as="geometry" />
        </mxCell>
        <mxCell id="Mt7ypALe2cK8DgjnzIch-28" value="SUM_SISP += NUM" style="whiteSpace=wrap;html=1;" vertex="1" parent="1">
          <mxGeometry x="145" y="1160" width="120" height="60" as="geometry" />
        </mxCell>
        <mxCell id="Mt7ypALe2cK8DgjnzIch-40" style="edgeStyle=orthogonalEdgeStyle;rounded=0;orthogonalLoop=1;jettySize=auto;html=1;exitX=0.5;exitY=1;exitDx=0;exitDy=0;entryX=0.5;entryY=0;entryDx=0;entryDy=0;" edge="1" parent="1" source="Mt7ypALe2cK8DgjnzIch-30" target="Mt7ypALe2cK8DgjnzIch-38">
          <mxGeometry relative="1" as="geometry" />
        </mxCell>
        <mxCell id="Mt7ypALe2cK8DgjnzIch-30" value="I += 1" style="whiteSpace=wrap;html=1;" vertex="1" parent="1">
          <mxGeometry x="145" y="1260" width="120" height="60" as="geometry" />
        </mxCell>
        <mxCell id="Mt7ypALe2cK8DgjnzIch-42" style="edgeStyle=orthogonalEdgeStyle;rounded=0;orthogonalLoop=1;jettySize=auto;html=1;exitX=0.5;exitY=1;exitDx=0;exitDy=0;entryX=1;entryY=0.5;entryDx=0;entryDy=0;" edge="1" parent="1" source="Mt7ypALe2cK8DgjnzIch-38" target="Mt7ypALe2cK8DgjnzIch-6">
          <mxGeometry relative="1" as="geometry">
            <Array as="points">
              <mxPoint x="205" y="1490" />
              <mxPoint x="590" y="1490" />
              <mxPoint x="590" y="600" />
            </Array>
          </mxGeometry>
        </mxCell>
        <mxCell id="Mt7ypALe2cK8DgjnzIch-38" value="" style="ellipse;whiteSpace=wrap;html=1;aspect=fixed;" vertex="1" parent="1">
          <mxGeometry x="190" y="1410" width="30" height="30" as="geometry" />
        </mxCell>
        <mxCell id="Mt7ypALe2cK8DgjnzIch-47" value="" style="edgeStyle=orthogonalEdgeStyle;rounded=0;orthogonalLoop=1;jettySize=auto;html=1;" edge="1" parent="1" source="Mt7ypALe2cK8DgjnzIch-43" target="Mt7ypALe2cK8DgjnzIch-46">
          <mxGeometry relative="1" as="geometry" />
        </mxCell>
        <mxCell id="Mt7ypALe2cK8DgjnzIch-48" value="TRUE" style="edgeLabel;html=1;align=center;verticalAlign=middle;resizable=0;points=[];" vertex="1" connectable="0" parent="Mt7ypALe2cK8DgjnzIch-47">
          <mxGeometry x="-0.2747" y="4" relative="1" as="geometry">
            <mxPoint as="offset" />
          </mxGeometry>
        </mxCell>
        <mxCell id="Mt7ypALe2cK8DgjnzIch-53" style="edgeStyle=orthogonalEdgeStyle;rounded=0;orthogonalLoop=1;jettySize=auto;html=1;exitX=0;exitY=0.5;exitDx=0;exitDy=0;entryX=1;entryY=0.5;entryDx=0;entryDy=0;" edge="1" parent="1" source="Mt7ypALe2cK8DgjnzIch-43" target="Mt7ypALe2cK8DgjnzIch-51">
          <mxGeometry relative="1" as="geometry" />
        </mxCell>
        <mxCell id="Mt7ypALe2cK8DgjnzIch-54" value="FALSE" style="edgeLabel;html=1;align=center;verticalAlign=middle;resizable=0;points=[];" vertex="1" connectable="0" parent="Mt7ypALe2cK8DgjnzIch-53">
          <mxGeometry x="-0.1964" y="1" relative="1" as="geometry">
            <mxPoint as="offset" />
          </mxGeometry>
        </mxCell>
        <mxCell id="Mt7ypALe2cK8DgjnzIch-43" value="SUM_PARI&amp;nbsp;&lt;div&gt;&amp;gt;&lt;/div&gt;&lt;div&gt;SUM_DISP&lt;/div&gt;" style="rhombus;whiteSpace=wrap;html=1;" vertex="1" parent="1">
          <mxGeometry x="108.5" y="560" width="124" height="80" as="geometry" />
        </mxCell>
        <mxCell id="Mt7ypALe2cK8DgjnzIch-59" style="edgeStyle=orthogonalEdgeStyle;rounded=0;orthogonalLoop=1;jettySize=auto;html=1;exitX=0.5;exitY=1;exitDx=0;exitDy=0;entryX=1;entryY=0.5;entryDx=0;entryDy=0;" edge="1" parent="1" source="Mt7ypALe2cK8DgjnzIch-46" target="Mt7ypALe2cK8DgjnzIch-58">
          <mxGeometry relative="1" as="geometry" />
        </mxCell>
        <mxCell id="Mt7ypALe2cK8DgjnzIch-46" value="WRITE&lt;div&gt;&quot;LA SOMMA DEI NUMERI PARI è&quot; NUM_PARI&lt;/div&gt;&lt;div&gt;&quot;LA SOMMA DEI NUMERI DISPARI è&quot; NUM_DISP&lt;/div&gt;&lt;div&gt;&quot;LA SOMMA DEI NUMERI PARI è MAGGIORE&quot;&lt;/div&gt;" style="shape=parallelogram;perimeter=parallelogramPerimeter;whiteSpace=wrap;html=1;fixedSize=1;" vertex="1" parent="1">
          <mxGeometry x="50" y="715" width="241" height="140" as="geometry" />
        </mxCell>
        <mxCell id="Mt7ypALe2cK8DgjnzIch-49" value="" style="edgeStyle=orthogonalEdgeStyle;rounded=0;orthogonalLoop=1;jettySize=auto;html=1;" edge="1" parent="1" source="Mt7ypALe2cK8DgjnzIch-51" target="Mt7ypALe2cK8DgjnzIch-52">
          <mxGeometry relative="1" as="geometry" />
        </mxCell>
        <mxCell id="Mt7ypALe2cK8DgjnzIch-50" value="TRUE" style="edgeLabel;html=1;align=center;verticalAlign=middle;resizable=0;points=[];" vertex="1" connectable="0" parent="Mt7ypALe2cK8DgjnzIch-49">
          <mxGeometry x="-0.2747" y="4" relative="1" as="geometry">
            <mxPoint as="offset" />
          </mxGeometry>
        </mxCell>
        <mxCell id="Mt7ypALe2cK8DgjnzIch-56" style="edgeStyle=orthogonalEdgeStyle;rounded=0;orthogonalLoop=1;jettySize=auto;html=1;exitX=0;exitY=0.5;exitDx=0;exitDy=0;entryX=1;entryY=0.5;entryDx=0;entryDy=0;" edge="1" parent="1" source="Mt7ypALe2cK8DgjnzIch-51" target="Mt7ypALe2cK8DgjnzIch-55">
          <mxGeometry relative="1" as="geometry" />
        </mxCell>
        <mxCell id="Mt7ypALe2cK8DgjnzIch-57" value="FALSE" style="edgeLabel;html=1;align=center;verticalAlign=middle;resizable=0;points=[];" vertex="1" connectable="0" parent="Mt7ypALe2cK8DgjnzIch-56">
          <mxGeometry x="-0.0909" y="-1" relative="1" as="geometry">
            <mxPoint x="1" as="offset" />
          </mxGeometry>
        </mxCell>
        <mxCell id="Mt7ypALe2cK8DgjnzIch-51" value="SUM_PARI&amp;nbsp;&lt;div&gt;&amp;lt;&lt;/div&gt;&lt;div&gt;SUM_DISP&lt;/div&gt;" style="rhombus;whiteSpace=wrap;html=1;" vertex="1" parent="1">
          <mxGeometry x="-182.5" y="560" width="124" height="80" as="geometry" />
        </mxCell>
        <mxCell id="Mt7ypALe2cK8DgjnzIch-60" style="edgeStyle=orthogonalEdgeStyle;rounded=0;orthogonalLoop=1;jettySize=auto;html=1;exitX=0.5;exitY=1;exitDx=0;exitDy=0;entryX=0.5;entryY=0;entryDx=0;entryDy=0;" edge="1" parent="1" source="Mt7ypALe2cK8DgjnzIch-52" target="Mt7ypALe2cK8DgjnzIch-58">
          <mxGeometry relative="1" as="geometry" />
        </mxCell>
        <mxCell id="Mt7ypALe2cK8DgjnzIch-52" value="WRITE&lt;div&gt;&quot;LA SOMMA DEI NUMERI PARI è&quot; NUM_PARI&lt;/div&gt;&lt;div&gt;&quot;LA SOMMA DEI NUMERI DISPARI è&quot; NUM_DISP&lt;/div&gt;&lt;div&gt;&quot;LA SOMMA DEI NUMERI DISPARI è MAGGIORE&quot;&lt;/div&gt;" style="shape=parallelogram;perimeter=parallelogramPerimeter;whiteSpace=wrap;html=1;fixedSize=1;" vertex="1" parent="1">
          <mxGeometry x="-241" y="715" width="241" height="140" as="geometry" />
        </mxCell>
        <mxCell id="Mt7ypALe2cK8DgjnzIch-61" style="edgeStyle=orthogonalEdgeStyle;rounded=0;orthogonalLoop=1;jettySize=auto;html=1;exitX=0.5;exitY=1;exitDx=0;exitDy=0;entryX=0;entryY=0.5;entryDx=0;entryDy=0;" edge="1" parent="1" source="Mt7ypALe2cK8DgjnzIch-55" target="Mt7ypALe2cK8DgjnzIch-58">
          <mxGeometry relative="1" as="geometry" />
        </mxCell>
        <mxCell id="Mt7ypALe2cK8DgjnzIch-55" value="WRITE&lt;div&gt;&quot;LA SOMMA DEI NUMERI PARI è&quot; NUM_PARI&lt;/div&gt;&lt;div&gt;&quot;LA SOMMA DEI NUMERI DISPARI è&quot; NUM_DISP&lt;/div&gt;&lt;div&gt;&quot;LA SOMMA DEI NUMERI DISPARI è UGUALE ALLA SOMMA DEI NUMERI PARI&quot;&lt;/div&gt;" style="shape=parallelogram;perimeter=parallelogramPerimeter;whiteSpace=wrap;html=1;fixedSize=1;" vertex="1" parent="1">
          <mxGeometry x="-620" y="530" width="321" height="140" as="geometry" />
        </mxCell>
        <mxCell id="Mt7ypALe2cK8DgjnzIch-63" style="edgeStyle=orthogonalEdgeStyle;rounded=0;orthogonalLoop=1;jettySize=auto;html=1;exitX=0.5;exitY=1;exitDx=0;exitDy=0;entryX=0.5;entryY=0;entryDx=0;entryDy=0;" edge="1" parent="1" source="Mt7ypALe2cK8DgjnzIch-58" target="Mt7ypALe2cK8DgjnzIch-62">
          <mxGeometry relative="1" as="geometry" />
        </mxCell>
        <mxCell id="Mt7ypALe2cK8DgjnzIch-58" value="" style="ellipse;whiteSpace=wrap;html=1;aspect=fixed;" vertex="1" parent="1">
          <mxGeometry x="-390" y="920" width="30" height="30" as="geometry" />
        </mxCell>
        <mxCell id="Mt7ypALe2cK8DgjnzIch-62" value="END" style="ellipse;whiteSpace=wrap;html=1;" vertex="1" parent="1">
          <mxGeometry x="-435" y="1030" width="120" height="80" as="geometry" />
        </mxCell>
        <mxCell id="Mt7ypALe2cK8DgjnzIch-66" style="edgeStyle=orthogonalEdgeStyle;rounded=0;orthogonalLoop=1;jettySize=auto;html=1;exitX=0;exitY=0.5;exitDx=0;exitDy=0;entryX=0;entryY=0.5;entryDx=0;entryDy=0;" edge="1" parent="1" source="Mt7ypALe2cK8DgjnzIch-64" target="Mt7ypALe2cK8DgjnzIch-2">
          <mxGeometry relative="1" as="geometry">
            <Array as="points">
              <mxPoint x="290" y="330" />
              <mxPoint x="290" y="190" />
            </Array>
          </mxGeometry>
        </mxCell>
        <mxCell id="Mt7ypALe2cK8DgjnzIch-69" value="FALSE" style="edgeLabel;html=1;align=center;verticalAlign=middle;resizable=0;points=[];" vertex="1" connectable="0" parent="Mt7ypALe2cK8DgjnzIch-66">
          <mxGeometry x="-0.7458" relative="1" as="geometry">
            <mxPoint as="offset" />
          </mxGeometry>
        </mxCell>
        <mxCell id="Mt7ypALe2cK8DgjnzIch-67" value="" style="edgeStyle=orthogonalEdgeStyle;rounded=0;orthogonalLoop=1;jettySize=auto;html=1;" edge="1" parent="1" source="Mt7ypALe2cK8DgjnzIch-64" target="Mt7ypALe2cK8DgjnzIch-4">
          <mxGeometry relative="1" as="geometry" />
        </mxCell>
        <mxCell id="Mt7ypALe2cK8DgjnzIch-68" value="TRUE" style="edgeLabel;html=1;align=center;verticalAlign=middle;resizable=0;points=[];" vertex="1" connectable="0" parent="Mt7ypALe2cK8DgjnzIch-67">
          <mxGeometry x="-0.4667" relative="1" as="geometry">
            <mxPoint as="offset" />
          </mxGeometry>
        </mxCell>
        <mxCell id="Mt7ypALe2cK8DgjnzIch-64" value="N % 1 == 0" style="rhombus;whiteSpace=wrap;html=1;" vertex="1" parent="1">
          <mxGeometry x="374" y="290" width="80" height="80" as="geometry" />
        </mxCell>
      </root>
    </mxGraphModel>
  </diagram>
</mxfile>
